<svg width="69" height="69" xmlns="http://www.w3.org/2000/svg"><g fill="none" fill-rule="nonzero"><path d="M34.286 68.571C15.35 68.571 0 53.221 0 34.286 0 15.35 15.35 0 34.286 0 53.22 0 68.57 15.35 68.57 34.286c-.023 18.925-15.36 34.262-34.285 34.285zm0-65.933C16.81 2.64 2.645 16.808 2.645 34.284c0 17.475 14.167 31.643 31.643 31.643S65.93 51.76 65.933 34.286c-.018-17.47-14.177-31.627-31.647-31.641v-.007z" fill="#0A3847"/><path d="M15.48 30.436l-1.393.496a.542.542 0 01-.68-.303l-.653-1.584a.539.539 0 01.288-.699l3.954-1.678a.51.51 0 01.209-.043h1.633a.539.539 0 01.532.54v13.84a.539.539 0 01-.539.54h-2.093a.536.536 0 01-.536-.54v-10.06a.539.539 0 00-.721-.51zM28.705 41.822a6.384 6.384 0 01-2.997-.653 6.289 6.289 0 01-2.11-1.757 7.647 7.647 0 01-1.254-2.478 9.979 9.979 0 010-5.672 7.647 7.647 0 011.27-2.491 6.482 6.482 0 0110.215 0c.566.742.99 1.582 1.25 2.478a9.904 9.904 0 010 5.672 7.576 7.576 0 01-1.25 2.478 6.299 6.299 0 01-2.113 1.757 6.377 6.377 0 01-3.01.666zm0-2.847a2.958 2.958 0 001.48-.366 3.383 3.383 0 001.113-1.022c.322-.473.56-.997.702-1.551a8.104 8.104 0 000-3.918 4.898 4.898 0 00-.702-1.548 3.35 3.35 0 00-1.114-1.022 3.158 3.158 0 00-2.961 0 3.38 3.38 0 00-1.114 1.022 4.898 4.898 0 00-.698 1.548 7.997 7.997 0 000 3.918c.141.553.377 1.078.698 1.55.29.42.671.77 1.114 1.023.454.249.965.375 1.482.366zM41.95 34.939a4.431 4.431 0 01-1.94-.392 4.16 4.16 0 01-1.355-1 3.837 3.837 0 01-.79-1.374 4.702 4.702 0 010-3.053c.166-.505.435-.97.79-1.365.38-.42.84-.76 1.355-1a5.035 5.035 0 013.879 0 4.023 4.023 0 012.135 2.378 4.539 4.539 0 010 3.053 4.036 4.036 0 01-2.136 2.374c-.609.27-1.272.4-1.939.379zm0-2.286a1.9 1.9 0 001.364-.539 2.224 2.224 0 000-2.961 1.989 1.989 0 00-2.73 0 2.233 2.233 0 000 2.961c.365.356.857.55 1.365.54zm10.328-6.037h1.538a.539.539 0 01.434.855L44.186 41.322a.532.532 0 01-.434.222h-1.538a.539.539 0 01-.434-.855l10.073-13.842a.532.532 0 01.425-.222v-.01zm1.792 15.196a4.431 4.431 0 01-1.94-.392 4.124 4.124 0 01-1.354-.999 3.837 3.837 0 01-.79-1.374 4.702 4.702 0 010-3.054c.164-.509.433-.978.79-1.377.38-.421.84-.761 1.355-1a5.035 5.035 0 013.879 0 4.023 4.023 0 012.135 2.377 4.539 4.539 0 010 3.054 4.036 4.036 0 01-2.136 2.374 4.45 4.45 0 01-1.939.401v-.01zm0-2.285a1.9 1.9 0 001.365-.54 2.233 2.233 0 000-2.96 1.989 1.989 0 00-2.73 0 2.224 2.224 0 000 2.96c.36.365.853.567 1.365.562v-.022z" fill="#FF8000"/><path d="M34.344 61.593A27.301 27.301 0 0110.315 47.27a1.322 1.322 0 012.325-1.258 24.67 24.67 0 0043.298.196 1.323 1.323 0 012.315 1.28 27.334 27.334 0 01-23.909 14.106zM11.592 23.047a1.344 1.344 0 01-.653-.164 1.329 1.329 0 01-.516-1.799 27.318 27.318 0 0147.814 0 1.322 1.322 0 01-2.296 1.28 24.67 24.67 0 00-43.183 0c-.232.426-.681.69-1.166.683z" fill="#0A3847"/></g></svg>
